<?xml version="1.0" encoding="UTF-8" standalone="no"?><!DOCTYPE svg PUBLIC "-//W3C//DTD SVG 1.1//EN" "http://www.w3.org/Graphics/SVG/1.1/DTD/svg11.dtd"><svg width="100%" height="100%" viewBox="0 0 406 197" version="1.1" xmlns="http://www.w3.org/2000/svg" xmlns:xlink="http://www.w3.org/1999/xlink" xml:space="preserve" xmlns:serif="http://www.serif.com/" style="fill-rule:evenodd;clip-rule:evenodd;stroke-linecap:round;stroke-linejoin:round;stroke-miterlimit:1.5;"><rect x="14.889" y="43.487" width="367.64" height="122.972" style="fill:#ffb15e;"/><text x="23.244px" y="60.836px" style="font-family:'ArialMT', 'Arial', sans-serif;font-size:12px;fill:#fff;">Docker</text><text x="72.432px" y="92.499px" style="font-family:'ArialMT', 'Arial', sans-serif;font-size:12px;fill:#fff;">3030</text><text x="309.127px" y="92.505px" style="font-family:'ArialMT', 'Arial', sans-serif;font-size:12px;fill:#fff;">8080</text><path d="M163.457,110.53c0,-7.394 -6.003,-13.398 -13.398,-13.398l-83.786,0c-7.395,0 -13.398,6.004 -13.398,13.398l0,26.796c0,7.395 6.003,13.398 13.398,13.398l83.786,0c7.395,0 13.398,-6.003 13.398,-13.398l0,-26.796Z" style="fill:#ff441c;"/><text x="75.72px" y="128.15px" style="font-family:'ArialMT', 'Arial', sans-serif;font-size:12px;fill:#fff;">Jena-Fuseki</text><path d="M354.023,110.53c0,-7.394 -6.004,-13.398 -13.398,-13.398l-83.786,0c-7.395,0 -13.398,6.004 -13.398,13.398l0,26.796c0,7.395 6.003,13.398 13.398,13.398l83.786,0c7.394,0 13.398,-6.003 13.398,-13.398l0,-26.796Z" style="fill:#ff441c;"/><text x="285.914px" y="128.226px" style="font-family:'ArialMT', 'Arial', sans-serif;font-size:12px;fill:#fff;">T</text><text x="292.799px" y="128.226px" style="font-family:'ArialMT', 'Arial', sans-serif;font-size:12px;fill:#fff;">riﬁd</text><text x="63.322px" y="29.117px" style="font-family:'ArialMT', 'Arial', sans-serif;font-size:10px;">http://localhost:3030</text><text x="253.888px" y="29.117px" style="font-family:'ArialMT', 'Arial', sans-serif;font-size:10px;">http://localhost:8080</text><path d="M301.732,84.352l-3,6l-3,-6l6,0Z" style="fill:#7d7676;"/><path d="M298.732,42.583l0,42.969" style="fill:none;stroke:#7d7676;stroke-width:2px;"/><circle cx="108.166" cy="98.214" r="7.021"/><path d="M111.166,85.036l-3,6l-3,-6l6,0Z" style="fill:#7d7676;"/><path d="M108.166,48.235l0,38.001" style="fill:none;stroke:#7d7676;stroke-width:2px;"/><circle cx="108.166" cy="45.128" r="7.021"/><circle cx="298.732" cy="42.765" r="7.021"/><circle cx="298.732" cy="97.647" r="7.021"/><circle cx="271.384" cy="97.647" r="7.021"/><path d="M120.193,92.414l-6.629,1.022l3.16,-5.917l3.469,4.895Z" style="fill:#7d7676;"/><path d="M265.295,93.363c-47.644,-38.026 -92.505,-41.108 -147.815,-2.703" style="fill:none;stroke:#7d7676;stroke-width:2px;"/><rect x="0" y="0" width="405.143" height="196.078" style="fill:none;"/></svg>